<?xml version="1.0" encoding="UTF-8" standalone="no"?>
<!-- Created with Inkscape (http://www.inkscape.org/) -->

<svg
   xmlns:dc="http://purl.org/dc/elements/1.1/"
   xmlns:cc="http://creativecommons.org/ns#"
   xmlns:rdf="http://www.w3.org/1999/02/22-rdf-syntax-ns#"
   xmlns:svg="http://www.w3.org/2000/svg"
   xmlns="http://www.w3.org/2000/svg"
   xmlns:sodipodi="http://sodipodi.sourceforge.net/DTD/sodipodi-0.dtd"
   xmlns:inkscape="http://www.inkscape.org/namespaces/inkscape"
   width="210mm"
   height="297mm"
   viewBox="0 0 210 297"
   version="1.1"
   id="svg8"
   inkscape:version="0.92.3 (2405546, 2018-03-11)"
   sodipodi:docname="redtidelogo.svg">
  <defs
     id="defs2" />
  <sodipodi:namedview
     id="base"
     pagecolor="#ffffff"
     bordercolor="#666666"
     borderopacity="1.0"
     inkscape:pageopacity="0.0"
     inkscape:pageshadow="2"
     inkscape:zoom="0.7"
     inkscape:cx="223.17147"
     inkscape:cy="631.52667"
     inkscape:document-units="mm"
     inkscape:current-layer="layer1"
     showgrid="false"
     inkscape:window-width="1920"
     inkscape:window-height="960"
     inkscape:window-x="0"
     inkscape:window-y="27"
     inkscape:window-maximized="1" />
  <metadata
     id="metadata5">
    <rdf:RDF>
      <cc:Work
         rdf:about="">
        <dc:format>image/svg+xml</dc:format>
        <dc:type
           rdf:resource="http://purl.org/dc/dcmitype/StillImage" />
        <dc:title></dc:title>
      </cc:Work>
    </rdf:RDF>
  </metadata>
  <g
     inkscape:label="Layer 1"
     inkscape:groupmode="layer"
     id="layer1">
    <g
       id="g4082"
       transform="translate(247.95238,44.60119)">
      <path
         style="fill:#d55858;stroke-width:1"
         d="m -234.81062,135.69902 c -0.21753,-0.16651 -0.65407,-1.00268 -0.9701,-1.85816 -0.65822,-1.78181 -1.22337,-2.54563 -1.88349,-2.54563 -0.72197,0 -1.06247,0.96529 -0.96558,2.73735 l 0.089,1.62828 h -0.92026 -0.92027 l -0.006,-7.73602 c -0.005,-6.20212 0.0641,-7.76284 0.34658,-7.87135 0.19381,-0.0744 1.21784,-0.13534 2.27563,-0.13534 3.96376,0 4.38346,0.56332 4.38346,5.88345 0,3.56451 -0.0283,3.76101 -0.66146,4.59111 -0.65585,0.85988 -0.84495,1.57062 -0.46302,1.74037 0.24843,0.11041 1.12756,2.5829 1.12579,3.16619 -0.002,0.54616 -0.9083,0.79951 -1.43054,0.39975 z m -0.53153,-6.54005 c 0.28274,-0.23465 0.37326,-1.06757 0.37326,-3.43437 v -3.12458 l -0.76845,-0.54719 c -0.87774,-0.625 -1.57737,-0.693 -2.2273,-0.21645 -0.95217,0.69815 -0.92054,7.42643 0.0362,7.70385 0.66428,0.19261 2.16059,-0.028 2.58628,-0.38126 z m 30.33732,6.61224 -0.59531,-0.22559 v -6.60147 c 0,-3.63081 -0.0723,-6.7898 -0.1606,-7.01998 -0.11272,-0.29375 -0.50711,-0.41852 -1.32291,-0.41852 -0.96067,0 -1.16232,-0.0862 -1.16232,-0.49677 0,-0.95152 0.59907,-1.11129 3.87398,-1.03323 3.02548,0.0721 3.14049,0.096 3.22197,0.66968 0.0955,0.6727 -0.84415,1.18806 -1.7394,0.95395 -0.32395,-0.0847 -0.58118,0.0204 -0.67994,0.27772 -0.0874,0.22769 -0.174,3.38673 -0.19252,7.02008 -0.0356,6.98412 -0.0944,7.30936 -1.24295,6.87413 z m 0.94148,-12.43332 c -0.0521,-0.15644 -0.18113,-0.2755 -0.28663,-0.26458 -0.10551,0.0109 -0.37042,0.0198 -0.5887,0.0198 -0.21828,0 -0.39688,0.11906 -0.39688,0.26458 0,0.14552 0.30758,0.26459 0.68351,0.26459 0.37593,0 0.64085,-0.128 0.5887,-0.28443 z m 6.06998,12.42413 c -0.88269,-0.33671 -0.93114,-0.85464 -0.13229,-1.41417 0.58797,-0.41183 0.59531,-0.4919 0.59531,-6.4922 0,-6.0003 -0.007,-6.08037 -0.59531,-6.4922 -0.6943,-0.4863 -0.7727,-1.05603 -0.1768,-1.2847 0.72774,-0.27926 2.90211,-0.17373 3.23274,0.1569 0.43548,0.43548 0.40033,1.27 -0.0535,1.27 -0.70826,0 -0.95193,1.62545 -0.95193,6.35 0,4.6822 0.21838,6.17413 0.94453,6.45277 0.4093,0.15707 0.51943,1.10175 0.15471,1.32715 -0.50044,0.3093 -2.33644,0.38624 -3.01747,0.12645 z m 38.38401,0.0884 c -0.20522,-0.0413 -0.49444,-0.39845 -0.6427,-0.79375 -0.29485,-0.78617 -0.26026,-13.2345 0.0401,-14.43126 0.17315,-0.68992 0.22709,-0.70716 2.19935,-0.70321 2.31434,0.005 2.97078,0.25969 2.5239,0.9806 -0.19628,0.31665 -0.69109,0.49682 -1.51282,0.55085 -1.15727,0.0761 -1.23512,0.1309 -1.48828,1.04776 -0.38806,1.40548 0.17156,2.17924 1.57613,2.17924 0.95151,0 1.04427,0.0603 0.99566,0.64776 -0.0445,0.53795 -0.23465,0.67758 -1.12152,0.82366 -0.58735,0.0968 -1.19335,0.27669 -1.34668,0.39986 -0.33948,0.27271 -0.47538,3.74042 -0.2347,5.98866 l 0.1758,1.64223 1.75634,0.0776 c 1.67635,0.074 1.75634,0.10768 1.75634,0.73902 0,0.64049 -0.0682,0.66565 -2.1519,0.79375 -1.18354,0.0728 -2.3198,0.0985 -2.52503,0.0573 z m 4.54464,-0.85102 c 0,-0.14552 -0.11907,-0.26458 -0.26459,-0.26458 -0.14552,0 -0.26458,0.11906 -0.26458,0.26458 0,0.14552 0.11906,0.26458 0.26458,0.26458 0.14552,0 0.26459,-0.11906 0.26459,-0.26458 z m 11.48197,0.66146 c -0.27169,-0.20844 -0.33345,-1.89292 -0.29103,-7.9375 l 0.0539,-7.67292 1.5875,-0.0822 c 0.87312,-0.0452 1.98184,-0.009 2.46382,0.0812 0.71314,0.13302 0.86095,0.2715 0.79375,0.7437 -0.0688,0.48315 -0.28093,0.59435 -1.26801,0.66457 -1.50982,0.10742 -1.85727,0.40954 -1.85727,1.61494 0,1.23476 0.38078,1.60802 1.64041,1.60802 1.64549,0 1.01535,1.43913 -0.71437,1.63151 l -0.79375,0.0883 -0.0765,3.30729 c -0.1066,4.61015 -0.1544,4.49792 1.91576,4.49792 1.49166,0 1.71826,0.0672 1.87333,0.5558 0.097,0.30569 0.0415,0.69071 -0.12338,0.85559 -0.37453,0.37452 -4.72533,0.41116 -5.20414,0.0438 z m 17.68834,0.22165 c -0.25404,-0.10251 -0.33073,-1.93324 -0.33073,-7.89457 v -7.76111 l 0.69684,-0.23228 c 0.82145,-0.27382 4.22193,0.0412 5.01303,0.46433 0.91767,0.49088 1.43665,2.45319 1.43519,5.42659 -0.001,2.34105 -0.0848,2.82761 -0.69768,4.05745 -0.6405,1.28533 -0.67016,1.48581 -0.36976,2.49935 0.17964,0.60606 0.50337,1.43551 0.71942,1.84323 0.49795,0.93971 0.28513,1.50765 -0.56493,1.50765 -0.74448,0 -1.19867,-0.57502 -1.8809,-2.38125 -0.42308,-1.12012 -1.23089,-2.11667 -1.71579,-2.11667 -0.11901,0 -0.41109,0.19472 -0.64908,0.43271 -0.32659,0.32659 -0.41754,0.85128 -0.37084,2.13943 0.0695,1.91627 -0.25777,2.42954 -1.28477,2.01514 z m 4.54516,-6.85513 c 0.31531,-0.31532 0.41577,-0.98135 0.41577,-2.75649 0,-1.28739 0.0659,-2.51237 0.14639,-2.72218 0.0805,-0.20981 -0.1682,-0.75532 -0.55269,-1.21226 -0.58277,-0.69259 -0.8871,-0.8308 -1.82932,-0.8308 h -1.13025 l -0.16685,1.38906 c -0.25741,2.1431 -0.20221,4.79371 0.11902,5.71521 0.2655,0.7616 0.38897,0.83323 1.43631,0.83323 0.6889,0 1.31165,-0.1658 1.56162,-0.41577 z m 12.97832,6.69962 c -0.20113,-0.55046 -0.21255,-1.12285 -0.16905,-8.47497 0.0365,-6.16429 0.0958,-7.1066 0.45658,-7.24502 0.69078,-0.26508 0.96965,0.31089 1.11169,2.29601 0.1482,2.07134 0.2567,2.19763 1.87603,2.18343 2.34511,-0.0206 2.15387,0.18537 2.15387,-2.31934 0,-2.19162 0.016,-2.24896 0.62906,-2.24896 0.34598,0 0.75744,0.15468 0.91434,0.34374 0.189,0.22773 0.28267,2.77072 0.27754,7.53444 -0.004,3.95488 0.0599,7.30006 0.14247,7.43374 0.18178,0.29412 -0.45046,0.56308 -1.32359,0.56308 h -0.63982 v -4.7625 -4.7625 h -1.6874 c -1.03827,0 -1.7943,0.12882 -1.96531,0.33487 -0.16057,0.19348 -0.3139,2.15287 -0.36313,4.64036 -0.0687,3.47324 -0.16192,4.35388 -0.48208,4.55586 -0.53855,0.33978 -0.78772,0.32045 -0.9312,-0.0722 z m -122.10991,0 c -0.14775,-0.99077 -0.16082,-12.23237 -0.0153,-13.15299 0.11343,-0.7175 0.11277,-1.45578 -0.001,-1.6406 -0.4413,-0.71402 0.32202,-1.01526 2.57255,-1.01526 1.73707,0 2.21656,0.0812 2.21656,0.37523 0,0.20639 0.0723,0.56357 0.1606,0.79375 0.1346,0.35078 -0.078,0.41852 -1.31361,0.41852 -1.63788,0 -2.02199,0.34556 -2.02199,1.81907 0,0.9272 0.33247,1.19626 1.53205,1.23985 0.47883,0.0174 0.98374,0.14478 1.12203,0.28307 0.3905,0.3905 -0.47399,1.42051 -1.19224,1.42051 -1.42834,0 -1.46211,0.0818 -1.45823,3.53404 0.005,4.5031 -0.04,4.40346 1.99379,4.40346 1.43623,0 1.69461,0.074 1.83831,0.5268 0.092,0.28974 0.093,0.64693 0.002,0.79375 -0.13652,0.22089 -5.40327,0.41547 -5.43529,0.2008 z m 1.20049,-8.40052 c -0.0899,-0.14552 -0.27555,-0.26458 -0.41249,-0.26458 -0.13693,0 -0.24896,0.11906 -0.24896,0.26458 0,0.14552 0.18562,0.26459 0.41249,0.26459 0.22686,0 0.3389,-0.11907 0.24896,-0.26459 z m 6.82925,8.13594 c -0.29746,-0.46094 -0.43372,-13.05848 -0.15525,-14.35364 l 0.22755,-1.05834 2.35475,-0.0772 c 2.99744,-0.0982 3.73915,0.19358 4.39791,1.73039 0.43409,1.0127 0.501,1.85262 0.501,6.28901 0,5.28616 -0.13471,6.15116 -1.12208,7.20519 -0.50818,0.54249 -0.79867,0.59531 -3.27405,0.59531 -1.88289,0 -2.78188,-0.10148 -2.92983,-0.33073 z m 4.81242,-1.67362 c 0.49897,-0.3772 0.52917,-0.70976 0.52917,-5.82766 v -5.42764 l -0.66146,-0.50274 c -0.43281,-0.32896 -1.00724,-0.48046 -1.66177,-0.43828 -0.80603,0.0519 -1.09962,0.22776 -1.51163,0.90525 -0.31507,0.51811 -0.40926,0.90387 -0.24541,1.00513 0.16446,0.10165 0.25275,1.99787 0.23144,4.97054 -0.0189,2.64342 0.0483,5.01457 0.14956,5.26923 0.23653,0.59519 2.40212,0.62673 3.1701,0.0462 z m 25.32901,1.68133 c -0.17671,-0.21292 -0.2555,-0.45293 -0.17508,-0.53335 0.0804,-0.0804 0.14073,-3.28415 0.13402,-7.1194 -0.01,-5.63039 0.0601,-7.06754 0.3634,-7.46318 0.549,-0.71621 4.71207,-0.55268 5.7381,0.22541 1.12962,0.85664 1.28659,1.75262 1.28659,7.34375 0,5.24222 -0.0943,5.89883 -1.013,7.05183 -0.46419,0.58258 -0.74383,0.64774 -3.26025,0.75966 -2.20302,0.098 -2.81663,0.0451 -3.07378,-0.26472 z m 5.39252,-2.22118 c 0.31824,-0.76165 0.38291,-1.92583 0.31722,-5.71037 -0.0722,-4.16315 -0.14002,-4.79568 -0.54552,-5.09174 -0.25466,-0.18594 -0.46302,-0.47377 -0.46302,-0.63963 0,-0.18483 -0.50393,-0.30156 -1.3019,-0.30156 -1.21497,0 -1.31291,0.0501 -1.46685,0.75106 -0.13125,0.59757 -0.24474,8.64012 -0.16021,11.35363 0.0171,0.54973 0.14113,0.59531 1.61954,0.59531 1.5894,0 1.6039,-0.007 2.00074,-0.9567 z m 0.89618,-12.00788 c 0,-0.14552 -0.11204,-0.26459 -0.24897,-0.26459 -0.13693,0 -0.32255,0.11907 -0.41249,0.26459 -0.0899,0.14552 0.0221,0.26458 0.24897,0.26458 0.22687,0 0.41249,-0.11906 0.41249,-0.26458 z m 3.5783,14.29789 c -0.30584,-0.49485 -0.15041,-14.89104 0.16487,-15.27094 0.19195,-0.23127 0.94104,-0.34987 2.20995,-0.34987 2.01385,0 2.67669,0.32533 2.35751,1.15709 -0.16352,0.42613 -0.63509,0.52958 -2.00786,0.44049 -0.8224,-0.0534 -1.27569,0.59165 -1.27569,1.8153 0,0.8498 0.77698,1.5142 1.46295,1.25097 0.1998,-0.0767 0.63312,0.0791 0.96294,0.34617 0.51361,0.4159 0.54878,0.54688 0.24511,0.91278 -0.195,0.23496 -0.6744,0.4272 -1.06533,0.4272 -0.39093,0 -0.93925,0.16706 -1.2185,0.37125 -0.45919,0.33577 -0.50049,0.67082 -0.43215,3.50573 0.10144,4.20847 0.0338,4.05968 1.84875,4.06457 1.72065,0.005 2.25732,0.24586 2.1218,0.9537 -0.0841,0.4395 -0.39295,0.50625 -2.65049,0.57293 -1.55227,0.0458 -2.62143,-0.0316 -2.72386,-0.19737 z m 3.83003,-10.06456 c 0,-0.14552 -0.0525,-0.26458 -0.11668,-0.26458 -0.0642,0 -0.19026,0.11906 -0.2802,0.26458 -0.0899,0.14552 -0.0374,0.26458 0.11668,0.26458 0.15411,0 0.2802,-0.11906 0.2802,-0.26458 z m 8.65849,10.1578 c -0.28766,-0.28767 -0.22293,-14.27486 0.0696,-15.04434 0.27378,-0.72008 0.28608,-0.7232 2.45425,-0.6236 3.85834,0.17726 4.38012,0.84643 4.39965,5.64243 0.0105,2.57079 -0.0641,3.06479 -0.63891,4.23333 -0.80476,1.63598 -0.80474,1.74869 8e-4,3.70417 0.83628,2.03013 0.82905,2.24896 -0.0743,2.24896 -0.85087,0 -1.37583,-0.424 -1.37583,-1.11125 0,-0.26194 -0.10214,-0.47625 -0.22699,-0.47625 -0.12484,0 -0.33374,-0.50602 -0.4642,-1.12448 -0.13047,-0.61846 -0.34504,-1.08404 -0.47683,-1.03463 -0.13179,0.0494 -0.34553,-0.0994 -0.47499,-0.33073 -0.30334,-0.54204 -1.16368,-0.54334 -1.37139,-0.002 -0.0883,0.23023 -0.16059,1.05393 -0.16059,1.83049 0,0.77656 -0.0723,1.60026 -0.1606,1.83044 -0.15605,0.40666 -1.17548,0.58174 -1.49966,0.25757 z m 4.70297,-6.50032 c 0.26998,-0.24763 0.65887,-5.8931 0.44855,-6.51154 -0.17004,-0.50001 -1.49457,-1.11469 -2.40196,-1.11469 -0.58529,0 -0.83839,0.15373 -0.98009,0.59531 -0.22272,0.69411 -0.20127,6.97917 0.0251,7.34541 0.18038,0.29187 2.52357,0.0385 2.90842,-0.31449 z m 12.92797,6.26439 c -0.22953,-0.59813 0.0908,-1.19062 0.64364,-1.19062 0.27025,0 0.74666,-0.27176 1.05869,-0.6039 0.54028,-0.57511 0.56837,-0.86214 0.58902,-6.01927 0.0271,-6.75386 0.21577,-7.28746 2.64005,-7.46444 0.8333,-0.0608 0.93443,0.005 1.00976,0.66001 0.0666,0.57845 -0.0244,0.7276 -0.44381,0.7276 -0.29015,0 -0.77431,0.31371 -1.07591,0.69714 -0.51003,0.6484 -0.54847,1.04151 -0.54985,5.6224 -0.002,5.51373 -0.19959,6.63997 -1.30542,7.42739 -0.89591,0.63794 -2.34537,0.7191 -2.56617,0.14369 z m 15.99367,0.25846 c -0.0761,-0.0761 0.0732,-1.0584 0.33191,-2.18281 0.45699,-1.98644 0.90509,-4.23784 1.32846,-6.6746 0.11378,-0.65485 0.39731,-2.0836 0.63007,-3.175 0.23277,-1.09141 0.44982,-2.2225 0.48233,-2.51354 0.0961,-0.86009 0.43739,-1.19063 1.22943,-1.19063 0.41016,0 0.862,0.14883 1.00409,0.33073 0.34615,0.44312 1.12936,3.67994 1.12936,4.66736 0,0.43356 0.12331,1.11263 0.27402,1.50903 0.15071,0.3964 0.3821,1.38642 0.51419,2.20004 0.13209,0.81361 0.36668,2.01508 0.52131,2.66992 0.49721,2.10563 0.74978,3.81037 0.61614,4.15865 -0.23726,0.61827 -1.10789,0.35945 -1.52879,-0.45448 -0.22575,-0.43656 -0.34368,-0.79375 -0.26207,-0.79375 0.0816,0 0.0181,-0.24341 -0.14108,-0.5409 -0.25455,-0.47562 -0.50315,-0.5315 -2.05983,-0.46302 l -1.77035,0.0779 -0.39688,1.25538 c -0.33837,1.07032 -0.49763,1.25559 -1.08038,1.25677 -0.37593,7.9e-4 -0.74579,-0.0609 -0.82193,-0.13703 z m 5.25253,-5.88085 c -0.22876,-2.55217 -0.77488,-5.09323 -1.09462,-5.09323 -0.16652,0 -0.44654,0.74414 -0.62226,1.65365 -0.7731,4.00138 -0.8434,4.47612 -0.69777,4.71176 0.0847,0.13705 0.69333,0.24917 1.35251,0.24917 h 1.19851 z m 15.86802,5.36795 c -0.38654,-0.35823 -0.82064,-0.96129 -0.96468,-1.34014 -0.14404,-0.37885 -0.26189,-3.17288 -0.26189,-6.20895 0,-4.554 0.0695,-5.58959 0.39688,-5.917 0.21828,-0.21828 0.39687,-0.51075 0.39687,-0.64993 0,-0.87821 3.43431,-1.52459 4.49792,-0.84656 0.72127,0.4598 -0.0436,1.18385 -1.34987,1.27786 -0.72916,0.0525 -1.38596,0.29198 -1.75899,0.64143 -0.57824,0.5417 -0.59531,0.70674 -0.59531,5.75711 0,5.0928 0.0126,5.21122 0.61237,5.77471 0.4213,0.3958 0.94778,0.57529 1.68739,0.57529 1.2685,0 1.92831,0.55937 1.40441,1.19062 -0.22267,0.26831 -0.82066,0.39688 -1.84585,0.39688 -1.24456,0 -1.64248,-0.11678 -2.21925,-0.65132 z m 21.967122,0.037 c -1.050785,-0.8504 -1.233276,-1.92075 -1.233276,-7.23333 0,-4.22471 0.06441,-4.95872 0.530534,-6.04615 0.314675,-0.7341 0.745284,-1.29384 1.058334,-1.37571 0.29029,-0.0759 0.527799,-0.2432 0.527799,-0.37175 0,-0.39332 3.074696,-0.27651 3.411751,0.12962 0.682567,0.82244 -0.07753,1.36763 -1.726851,1.23861 -0.31225,-0.0244 -0.890674,0.28732 -1.295688,0.69831 l -0.731631,0.74245 0.04487,4.10104 c 0.07044,6.43757 0.26444,7.117 2.037365,7.13534 1.072034,0.0111 1.964349,-0.93474 1.964349,-2.08215 0,-0.72246 -0.133794,-0.91632 -0.80803,-1.17082 -0.625173,-0.23598 -0.775678,-0.42537 -0.665072,-0.83691 0.07863,-0.29256 0.144587,-0.68075 0.146574,-0.86265 0.0042,-0.38749 2.044692,-0.45421 2.626553,-0.0859 0.275227,0.17422 0.391374,0.95915 0.439843,2.97251 0.03622,1.50468 0.01805,2.91437 -0.04043,3.13265 -0.08471,0.3163 -0.661448,0.40645 -2.840606,0.444 -2.454299,0.0423 -2.807234,-0.0119 -3.446388,-0.52917 z m 8.695919,0.30133 c -0.06708,-0.19165 -0.09617,-3.74173 -0.06464,-7.88907 l 0.05732,-7.54063 2.115778,-0.0784 c 2.602825,-0.0965 3.119668,0.026 4.11235,0.97465 l 0.78333,0.74859 v 3.59215 c 0,3.76261 -0.122893,4.41749 -1.021347,5.44262 -0.52106,0.59454 -0.527351,0.67289 -0.127423,1.5875 0.231378,0.52916 0.47966,1.23176 0.551738,1.56133 0.07208,0.32957 0.235895,0.66402 0.36404,0.74322 0.128146,0.0792 0.232992,0.38228 0.232992,0.67352 0,0.44934 -0.148814,0.51709 -0.982797,0.44741 -0.849701,-0.071 -1.006636,-0.18962 -1.15884,-0.87587 -0.286549,-1.29199 -1.304605,-3.32646 -1.750121,-3.49742 -0.878417,-0.33708 -1.262655,0.30356 -1.399908,2.33406 -0.128556,1.90182 -0.152889,1.95948 -0.861401,2.04097 -0.429244,0.0494 -0.779267,-0.0594 -0.85107,-0.26458 z m 4.358304,-6.00494 c 0.71437,-0.0651 1.058627,-1.37255 1.04992,-3.9874 -0.0087,-2.60194 -0.287078,-3.45298 -1.12962,-3.45298 -0.230029,0 -0.491821,-0.11907 -0.581758,-0.26459 -0.226031,-0.36572 -1.28175,-0.3322 -1.666875,0.0529 -0.214995,0.215 -0.3175,1.44935 -0.3175,3.82331 0,4.15591 -0.05588,4.07505 2.645833,3.82874 z m 6.953472,5.99042 c -1.504193,-0.48302 -1.7316,-1.61276 -1.622761,-8.06177 0.07934,-4.70083 0.161957,-5.63002 0.553765,-6.22774 0.462116,-0.70497 1.825736,-1.25501 3.111357,-1.25501 1.142058,0 2.668217,0.54053 2.839598,1.00571 0.09048,0.2456 0.292259,0.53134 0.448395,0.63498 0.184441,0.12242 0.311888,2.32244 0.363831,6.28051 0.07935,6.04627 0.07537,6.09698 -0.529166,6.74199 -1.097722,1.17123 -3.164182,1.52384 -5.165019,0.88133 z m 3.563715,-1.7742 c 0.581083,-0.48476 0.595313,-0.62353 0.595313,-5.80594 v -5.3093 l -0.63422,-0.41555 c -0.968859,-0.63482 -1.810223,-0.69018 -2.661729,-0.17514 l -0.773441,0.46783 0.07265,5.38634 c 0.04715,3.49558 0.180025,5.55828 0.378547,5.87616 0.414118,0.66311 2.216195,0.64856 3.022883,-0.0244 z m 5.342898,1.24901 -0.778835,-0.85271 0.004,-6.75406 c 0.0021,-3.71473 0.105793,-6.9146 0.230142,-7.11081 0.124349,-0.19622 0.449948,-0.31376 0.723554,-0.26119 0.466373,0.0896 0.505729,0.50045 0.629753,6.57447 0.152551,7.47098 0.205182,7.66952 2.033018,7.66952 1.884897,0 1.935734,-0.19525 1.935734,-7.43481 0,-6.61935 0.07501,-7.02966 1.24406,-6.80494 0.437309,0.0841 0.482188,0.5506 0.555652,5.77654 0.102468,7.2891 -0.0028,8.19571 -1.073409,9.2424 -0.770581,0.75339 -0.9592,0.80831 -2.775821,0.80831 -1.858078,0 -1.985417,-0.0398 -2.727896,-0.85272 z m 8.922353,0.47483 c -0.303705,-0.79144 -0.19875,-14.75425 0.113734,-15.13077 0.365413,-0.44029 5.266327,-0.53499 5.266327,-0.10176 0,0.14552 0.148828,0.26641 0.330729,0.26864 0.181901,0.002 0.485926,0.10249 0.675611,0.2228 0.485624,0.30801 1.089715,3.03984 1.100902,4.97848 0.01025,1.77612 -0.478343,4.31967 -0.829768,4.31967 -0.120528,0 -0.219141,0.15948 -0.219141,0.3544 0,0.56147 -1.215445,0.96851 -2.892007,0.96851 -1.694357,0 -1.858904,0.17879 -1.866881,2.02848 -0.0021,0.46081 -0.15244,0.8979 -0.334341,0.9713 -0.264583,0.10676 -0.264583,0.13762 0,0.15433 0.478428,0.0302 0.406969,0.99336 -0.08779,1.18321 -0.677211,0.25987 -1.102476,0.18638 -1.257379,-0.21729 z m 3.117135,-4.93637 c -0.08519,-0.13784 -0.267665,-0.18092 -0.405505,-0.0957 -0.13784,0.0852 -0.180917,0.26766 -0.09573,0.4055 0.08519,0.13784 0.267666,0.18092 0.405506,0.0957 0.13784,-0.0852 0.180917,-0.26766 0.09573,-0.4055 z m 1.710349,-1.1606 c 0.668459,-0.21216 0.927452,-1.79025 0.762227,-4.64439 -0.104309,-1.80187 -0.207698,-2.15779 -0.760497,-2.61801 -0.773628,-0.64407 -2.752815,-0.75691 -2.978113,-0.1698 -0.124131,0.32349 -0.241083,4.50057 -0.190666,6.81006 0.0098,0.44999 0.184274,0.74626 0.47848,0.8126 0.577808,0.13028 1.99412,0.03 2.688569,-0.19046 z M -200.31814,114.00272 c -0.0781,-0.0799 -1.86401,-0.27607 -3.96875,-0.43599 -2.10473,-0.15992 -4.66023,-0.39077 -5.67887,-0.51298 -6.54627,-0.78543 -16.65368,-3.40026 -20.50521,-5.30478 -0.50932,-0.25186 -1.55112,-0.67643 -2.31511,-0.94351 -0.76398,-0.26708 -1.38906,-0.57636 -1.38906,-0.68729 0,-0.11093 -0.47625,-0.34438 -1.05833,-0.51878 -0.58208,-0.1744 -1.05833,-0.4173 -1.05833,-0.53979 0,-0.12248 -0.22207,-0.2227 -0.49349,-0.2227 -0.54485,0 -1.88776,-0.95475 -1.88776,-1.34212 0,-0.31892 1.24562,-0.31992 1.44262,-0.001 0.083,0.13433 0.53653,0.32179 1.00781,0.41659 0.87913,0.17685 5.46524,1.62525 6.41311,2.02542 0.29104,0.12287 1.42213,0.4007 2.51354,0.61739 1.09141,0.21669 2.75828,0.57853 3.70417,0.80409 0.94588,0.22556 2.73182,0.53073 3.96875,0.67816 1.23692,0.14743 2.66567,0.38041 3.175,0.51774 0.50932,0.13732 2.44408,0.25035 4.29947,0.25116 2.2685,0.001 3.37344,0.0965 3.37344,0.29143 0,0.20683 2.02921,0.24593 7.07761,0.13639 8.61285,-0.1869 13.67213,-0.50974 16.99947,-1.08477 1.38245,-0.23891 3.1319,-0.53451 3.88767,-0.65688 0.75576,-0.12237 1.50827,-0.30541 1.67224,-0.40674 0.16396,-0.10134 1.13925,-0.28987 2.1673,-0.41896 1.02805,-0.12908 2.00195,-0.33534 2.16422,-0.45834 0.16227,-0.123 1.00941,-0.37026 1.88253,-0.54945 2.67902,-0.54983 6.00484,-1.6661 8.44117,-2.83319 0.42254,-0.20241 1.03304,-0.36801 1.35667,-0.36801 0.32362,0 0.73663,-0.1786 0.91779,-0.39688 0.18115,-0.21828 0.43444,-0.39687 0.56286,-0.39687 0.12841,0 0.85049,-0.29766 1.60462,-0.66146 0.75412,-0.36381 1.52745,-0.66146 1.71849,-0.66146 0.19105,0 0.34736,-0.11906 0.34736,-0.26458 0,-0.145526 0.1318,-0.264588 0.2929,-0.264588 0.4345,0 3.79385,-1.631453 3.89633,-1.892237 0.0485,-0.123436 0.20753,-0.22443 0.35337,-0.22443 0.28867,0 3.70869,-1.627277 3.92407,-1.867103 0.0728,-0.08102 0.54901,-0.310172 1.05833,-0.509218 0.50932,-0.199046 1.24208,-0.579239 1.62834,-0.844875 0.38627,-0.265634 0.89228,-0.48297 1.12448,-0.48297 0.2322,0 0.42218,-0.09515 0.42218,-0.211432 0,-0.116287 0.44237,-0.371395 0.98304,-0.566904 0.54067,-0.195508 1.83663,-0.755208 2.8799,-1.243777 1.04327,-0.488662 2.02965,-0.888399 2.19196,-0.888399 0.1623,0 0.2951,-0.105183 0.2951,-0.233739 0,-0.128558 0.26789,-0.295087 0.59531,-0.370064 0.32742,-0.07498 1.01203,-0.287973 1.52135,-0.473316 1.73022,-0.629634 5.15721,-1.906506 5.68855,-2.119511 0.29104,-0.116676 0.92414,-0.289822 1.40688,-0.384773 0.48275,-0.09495 1.19712,-0.339278 1.5875,-0.542946 0.39038,-0.203668 0.89572,-0.371041 1.12297,-0.371938 0.22726,-7.94e-4 1.29955,-0.233789 2.38287,-0.517538 1.08332,-0.283748 2.56426,-0.574231 3.29098,-0.645518 0.72671,-0.07129 1.3213,-0.150526 1.3213,-0.17609 0,-0.197234 5.266,-0.867762 8.6651,-1.103345 2.29195,-0.15885 4.16719,-0.389014 4.16719,-0.511479 0,-0.122462 2.38125,-0.22266 5.29166,-0.22266 2.910419,0 5.291669,0.0963 5.291669,0.214008 0,0.117708 2.342584,0.352801 5.205743,0.522433 2.86316,0.169633 5.274175,0.412581 5.357813,0.539883 0.08364,0.127304 1.025527,0.30286 2.093087,0.390125 1.067561,0.08727 2.093666,0.285353 2.280231,0.44019 0.186569,0.154837 0.870969,0.261408 1.520889,0.236826 0.657452,-0.02487 1.571276,0.149664 2.059897,0.393419 0.483021,0.240964 1.189795,0.438116 1.570607,0.438116 1.601232,0 15.184434,4.953156 15.895065,5.796187 0.07276,0.08631 0.846667,0.496994 1.719792,0.91262 3.88716,1.850369 4.503107,2.166416 4.58611,2.353172 0.04851,0.109141 0.229817,0.198438 0.40291,0.198438 0.173093,0 0.947467,0.416718 1.720836,0.926041 0.773367,0.509323 1.508877,0.926042 1.634464,0.926042 0.12559,0 0.323556,0.159388 0.439928,0.354192 0.116372,0.194805 0.449709,0.484455 0.740751,0.643666 0.50559,0.276576 0.507349,0.297875 0.03944,0.478112 -0.284025,0.109403 -0.570174,0.05847 -0.681254,-0.121264 -0.105341,-0.170444 -1.016061,-0.604924 -2.023819,-0.965509 -1.007758,-0.360582 -2.129944,-0.786792 -2.493746,-0.947132 -0.363802,-0.160337 -1.078177,-0.470784 -1.5875,-0.68988 -0.509322,-0.219093 -1.118642,-0.495382 -1.354042,-0.613973 -0.235402,-0.118594 -0.919527,-0.347978 -1.52028,-0.509744 -0.600752,-0.161763 -1.324221,-0.543081 -1.607706,-0.847368 -0.333145,-0.357589 -0.679127,-0.490434 -0.978294,-0.375631 -0.608454,0.233484 -3.030728,-0.394483 -3.197442,-0.828929 -0.07155,-0.186473 -0.459581,-0.33904 -0.862277,-0.33904 -0.402698,0 -1.19363,-0.161658 -1.757629,-0.359241 -0.563999,-0.197583 -1.588225,-0.442587 -2.276057,-0.544454 -0.687832,-0.101867 -1.319938,-0.297397 -1.404678,-0.434509 -0.08474,-0.137113 -0.548797,-0.249296 -1.031235,-0.249296 -0.482439,0 -1.38335,-0.178594 -2.002025,-0.396875 -0.618676,-0.218281 -1.524204,-0.396875 -2.012286,-0.396875 -0.488082,0 -1.336315,-0.170201 -1.884963,-0.378222 -0.548648,-0.208023 -2.30723,-0.438676 -3.907959,-0.512564 -1.600729,-0.07389 -4.577292,-0.270505 -6.614583,-0.436928 -3.991324,-0.326048 -16.536457,-0.109701 -16.536457,0.285179 0,0.121491 -1.63711,0.272505 -3.63802,0.33559 -2.00091,0.06308 -4.35239,0.240352 -5.22552,0.39393 -0.87312,0.15358 -2.24234,0.396179 -3.04271,0.539109 -0.80036,0.142934 -2.82442,0.579972 -4.49791,0.971198 -1.67349,0.391229 -3.34037,0.768993 -3.70417,0.839476 -0.3638,0.07049 -1.01865,0.285274 -1.45521,0.477308 -0.43656,0.192037 -1.68672,0.61744 -2.77812,0.94534 -1.09141,0.327901 -2.73962,0.933829 -3.66269,1.346507 -0.92307,0.412682 -1.87557,0.752975 -2.11666,0.756211 -0.2411,0.0032 -0.73602,0.238713 -1.09982,0.523283 -0.3638,0.28457 -0.75825,0.520046 -0.87655,0.523282 -0.23082,0.0063 -2.96417,1.231754 -3.62137,1.623563 -0.35886,0.21395 -1.6281,0.828392 -4.23333,2.049358 -0.50932,0.23871 -1.37016,0.7019 -1.91297,1.02932 -0.54281,0.32742 -1.28104,0.59531 -1.6405,0.59531 -0.35946,0 -0.74878,0.16718 -0.86515,0.37151 -0.20497,0.35989 -3.53356,2.00974 -4.05467,2.00974 -0.14188,0 -0.25889,0.0893 -0.26002,0.19844 -0.001,0.10914 -0.32856,0.35987 -0.72761,0.55718 -1.29493,0.64029 -7.05317,2.98143 -7.86929,3.19944 -0.43656,0.11662 -1.56765,0.50677 -2.51354,0.867 -1.60689,0.61197 -4.12101,1.30788 -5.02708,1.3915 -0.21828,0.0201 -0.64742,0.17306 -0.95365,0.3398 -0.30622,0.16675 -1.34802,0.38424 -2.3151,0.48332 -0.96708,0.0991 -1.75833,0.26889 -1.75833,0.37735 0,0.10846 -0.32743,0.28252 -0.72761,0.3868 -0.6953,0.18119 -1.61256,0.29227 -7.60677,0.9212 -2.95162,0.30969 -16.8532,0.671 -17.07529,0.44379 z"
         id="path4086"
         inkscape:connector-curvature="0" />
      <path
         style="fill:#696e6c;stroke-width:1"
         d="m -155.59389,134.9994 c 0,-0.14552 0.11906,-0.26458 0.26458,-0.26458 0.14552,0 0.26459,0.11906 0.26459,0.26458 0,0.14552 -0.11907,0.26458 -0.26459,0.26458 -0.14552,0 -0.26458,-0.11906 -0.26458,-0.26458 z m 102.804586,-4.21074 c -0.08519,-0.13784 -0.04211,-0.32031 0.09573,-0.4055 0.13784,-0.0852 0.320317,-0.0421 0.405505,0.0957 0.08519,0.13784 0.04211,0.32031 -0.09573,0.4055 -0.13784,0.0852 -0.320318,0.0421 -0.405506,-0.0957 z m -37.981674,-0.78804 c 0,-0.27547 0.178594,-0.56939 0.396875,-0.65315 0.423741,-0.1626 0.495359,0.0603 0.236276,0.7355 -0.222165,0.57895 -0.633151,0.5255 -0.633151,-0.0823 z M -229.9418,127.32648 c 0,-0.14552 0.11203,-0.26458 0.24896,-0.26458 0.13694,0 0.32256,0.11906 0.41249,0.26458 0.0899,0.14552 -0.0221,0.26459 -0.24896,0.26459 -0.22687,0 -0.41249,-0.11907 -0.41249,-0.26459 z m 50.93228,-1.85208 c 0.0899,-0.14552 0.21603,-0.26458 0.2802,-0.26458 0.0642,0 0.11668,0.11906 0.11668,0.26458 0,0.14552 -0.12609,0.26458 -0.2802,0.26458 -0.15411,0 -0.20661,-0.11906 -0.11668,-0.26458 z m -42.32203,-2.09838 c -0.0837,-0.13547 -0.0312,-0.32109 0.11668,-0.41249 0.14789,-0.0914 0.2689,0.0194 0.2689,0.2463 0,0.46474 -0.15877,0.53317 -0.38558,0.16619 z m 15.99599,-0.0183 c 0,-0.14552 0.1786,-0.26458 0.39688,-0.26458 0.21828,0 0.48319,-0.009 0.5887,-0.0198 0.1055,-0.0109 0.23448,0.10814 0.28663,0.26458 0.0522,0.15643 -0.21277,0.28443 -0.5887,0.28443 -0.37593,0 -0.68351,-0.11907 -0.68351,-0.26459 z m 18.65313,-2.11666 c 0.0899,-0.14552 0.27556,-0.26459 0.41249,-0.26459 0.13693,0 0.24897,0.11907 0.24897,0.26459 0,0.14552 -0.18562,0.26458 -0.41249,0.26458 -0.22687,0 -0.33891,-0.11906 -0.24897,-0.26458 z m -41.14271,-22.225003 c 0,-0.145521 0.40218,-0.264584 0.89373,-0.264584 2.56795,0 4.05934,-1.663184 5.57546,-6.217708 0.74705,-2.244172 3.49386,-8.069792 3.80495,-8.069792 0.1014,0 0.42081,-0.493863 0.7098,-1.097475 0.88768,-1.854081 1.0363,-2.077525 1.38193,-2.077525 0.18377,0 0.33413,-0.297656 0.33413,-0.661458 0,-0.363802 0.1073,-0.661458 0.23845,-0.661458 0.13115,0 0.5181,-0.440841 0.8599,-0.979647 1.03978,-1.639107 1.35069,-2.051013 3.12909,-4.145544 0.94264,-1.110208 1.80584,-2.018559 1.91823,-2.018559 0.11238,0 0.20433,-0.174406 0.20433,-0.387567 0,-0.213162 0.23813,-0.515006 0.52917,-0.670767 0.29104,-0.15576 0.52916,-0.457604 0.52916,-0.670766 0,-0.213162 0.18233,-0.387567 0.40518,-0.387567 0.22285,0 0.47828,-0.190481 0.56762,-0.423294 0.16951,-0.441751 1.3306,-1.693373 1.57088,-1.693373 0.0761,0 0.64562,-0.506015 1.2656,-1.124479 2.37655,-2.370741 5.87695,-5.205555 6.44333,-5.21816 0.1819,-0.004 0.33073,-0.106633 0.33073,-0.227965 0,-0.221596 1.75115,-1.471186 3.96875,-2.832032 0.65484,-0.40185 1.25015,-0.802134 1.32291,-0.88952 0.37893,-0.4551 3.29481,-1.878677 3.84805,-1.878677 0.18765,0 0.38088,-0.100993 0.42939,-0.224429 0.0858,-0.21829 3.42844,-1.892238 3.77855,-1.892238 0.0963,0 0.67461,-0.225014 1.28509,-0.50003 1.85623,-0.836219 6.32836,-2.203072 7.59226,-2.320482 0.50932,-0.04731 2.19942,-0.220509 3.75578,-0.384879 2.80907,-0.29667 4.18172,-0.198191 4.18172,0.300016 0,0.142748 -0.10895,0.259542 -0.24211,0.259542 -0.50795,0 -5.04349,4.323849 -6.41362,6.114279 -0.34118,0.445825 -0.76914,0.970397 -0.95104,1.165716 -0.18191,0.195318 -0.33073,0.419679 -0.33073,0.498579 0,0.222298 -1.69476,2.661339 -1.91823,2.760662 -0.10914,0.04851 -0.19844,0.301819 -0.19844,0.562916 0,0.261097 -0.17859,0.622941 -0.39688,0.804098 -0.21828,0.181157 -0.39687,0.532745 -0.39687,0.781306 0,0.248561 -0.29716,1.037654 -0.66035,1.75354 -0.36319,0.715886 -0.66085,1.472279 -0.66146,1.680871 -5.3e-4,0.208593 -0.22683,1.04203 -0.50271,1.852084 -1.79073,5.258014 -1.60817,11.010307 0.49179,15.495741 0.4769,1.018646 1.03317,2.20927 1.23615,2.645833 1.08332,2.329942 4.26165,6.238343 5.96668,7.337227 1.34987,0.869987 2.61377,1.526315 2.93926,1.526315 0.17963,0 0.80109,0.260696 1.38102,0.579326 0.57992,0.318632 1.59019,0.659911 2.24504,0.758399 1.00222,0.150736 0.84523,0.184666 -0.99219,0.214424 -1.30239,0.02109 -2.18281,-0.07137 -2.18281,-0.229233 0,-0.145521 -0.32743,-0.26508 -0.72761,-0.265692 -1.80714,-0.0028 -5.76204,-2.990977 -8.22761,-6.216599 -0.6674,-0.873125 -1.30675,-1.627188 -1.42078,-1.675694 -0.11404,-0.04851 -0.20734,-0.316399 -0.20734,-0.595312 0,-0.278916 -0.10346,-0.507119 -0.22992,-0.507119 -0.38755,0 -2.57821,-4.545267 -2.93405,-6.087695 -0.18436,-0.799111 -0.50039,-2.011082 -0.70228,-2.693271 -0.72736,-2.457717 -0.44725,-5.873033 0.96494,-11.765121 0.93862,-3.916243 3.40138,-10.14558 4.01103,-10.14558 0.1275,0 0.10745,-0.232383 -0.0445,-0.516407 -0.23793,-0.444576 -0.46925,-0.495501 -1.66296,-0.366109 -0.76262,0.08266 -1.7323,0.315047 -2.15484,0.516407 -0.42254,0.20136 -1.00598,0.366109 -1.29654,0.366109 -0.29056,0 -1.195,0.309343 -2.00987,0.687429 -3.3245,1.542514 -6.51396,3.160953 -6.59686,3.347467 -0.0485,0.10914 -0.25687,0.198437 -0.46302,0.198437 -0.20615,0 -0.37483,0.11104 -0.37483,0.246754 0,0.135715 -0.24196,0.323549 -0.53769,0.417411 -0.29573,0.09386 -0.8489,0.459072 -1.22926,0.81158 -0.38036,0.352507 -0.85187,0.640922 -1.04779,0.640922 -0.36131,0 -1.42953,0.809625 -2.18182,1.653646 -0.22699,0.254661 -0.51229,0.463021 -0.634,0.463021 -0.24844,0 -1.88759,1.249029 -3.47223,2.645833 -1.56821,1.382316 -7.83995,7.730384 -8.79448,8.901509 -1.48199,1.818267 -3.79856,4.981139 -3.79856,5.186262 0,0.10985 -0.17859,0.199729 -0.39687,0.199729 -0.21828,0 -0.39688,0.231098 -0.39688,0.513551 0,0.282453 -0.12087,0.588253 -0.26859,0.67955 -0.14772,0.0913 -0.44654,0.544812 -0.66402,1.007804 -0.2175,0.462991 -1.04913,1.959078 -1.84808,3.324637 -0.79895,1.36556 -1.45264,2.585951 -1.45264,2.71198 0,0.126029 -0.11906,0.229145 -0.26458,0.229145 -0.14553,0 -0.26459,0.177458 -0.26459,0.394351 0,0.566835 -1.11702,3.045232 -1.3725,3.045232 -0.11825,0 -0.215,0.276212 -0.215,0.613804 0,0.653243 -1.29484,2.296613 -1.80954,2.296613 -0.16892,0 -0.30712,0.09514 -0.30712,0.211431 0,0.364982 -1.70447,0.846902 -2.99535,0.846902 -0.68089,0 -1.23799,-0.119063 -1.23799,-0.264583 z m 166.158328,-4.7625 c 0,-0.145521 0.171566,-0.264584 0.381259,-0.264584 0.209693,0 0.454845,0.119063 0.544782,0.264584 0.08994,0.145521 -0.08163,0.264583 -0.381259,0.264583 -0.29963,0 -0.544782,-0.119062 -0.544782,-0.264583 z M -185.44946,89.587362 c -0.0233,-0.165317 -0.50145,-0.998755 -1.06257,-1.852084 -1.60809,-2.445496 -2.45401,-5.423124 -2.61719,-9.212516 -0.13358,-3.102062 0.2323,-7.330451 0.68545,-7.921707 0.12321,-0.160753 0.37789,-0.860893 0.56595,-1.555867 0.18806,-0.694973 0.44467,-1.327078 0.57022,-1.404678 0.12556,-0.0776 0.22829,-0.372189 0.22829,-0.654642 0,-0.282454 0.11907,-0.513551 0.26459,-0.513551 0.14552,0 0.26834,-0.148828 0.27294,-0.33073 0.009,-0.357759 1.17855,-1.785937 1.46246,-1.785937 0.0953,0 0.0871,0.208359 -0.0182,0.463021 -0.10531,0.254661 -0.54515,1.772708 -0.97742,3.373437 -0.68048,2.519889 -0.80552,3.52592 -0.93191,7.497459 -0.0998,3.134711 -0.0438,5.061452 0.17685,6.085416 0.55962,2.597499 0.86708,3.842544 1.26,5.10231 0.20975,0.672478 0.3322,1.624978 0.27211,2.116667 -0.0601,0.491691 -0.12831,0.758721 -0.1516,0.593402 z"
         id="path4084"
         inkscape:connector-curvature="0" />
    </g>
  </g>
</svg>
